<?xml version="1.0" encoding="UTF-8"?>
<svg enable-background="new 0 0 100 100" version="1.1" viewBox="0 0 100 100" xml:space="preserve" xmlns="http://www.w3.org/2000/svg">
<style type="text/css">
    .st0{fill:#4e4cff;}
</style>
    <path class="st0" d="m47.48 42.27c-1.34 1.94-2.21 4.98-2.64 9.14-0.24 2.88-0.02 5.05 0.68 6.52s1.82 2.21 3.37 2.21c1.04 0 2-0.46 2.87-1.39s1.6-2.26 2.17-3.98l1.33-15.13c-0.66-0.18-1.35-0.27-2.06-0.27-2.48 0-4.38 0.97-5.72 2.9z"/>
<path class="st0" d="m50 0c-27.61 0-50 22.39-50 50s22.39 50 50 50 50-22.39 50-50-22.39-50-50-50zm28.02 47.63c-0.22 5.77-1.66 10.37-4.31 13.8s-6.19 5.14-10.62 5.14c-1.81 0-3.42-0.39-4.81-1.18s-2.48-1.9-3.25-3.33c-2.17 2.92-5.08 4.38-8.72 4.38-2.12 0-3.98-0.62-5.57-1.87s-2.76-3.02-3.5-5.32-0.97-4.91-0.68-7.83c0.66-5.53 2.44-9.97 5.34-13.34 2.9-3.36 6.45-5.04 10.65-5.04 3.25 0 6.05 0.75 8.39 2.26l2.09 1.39-1.69 19.47c-0.38 3.07 0.69 4.61 3.18 4.61 1.88 0 3.46-1.2 4.73-3.6s1.97-5.47 2.11-9.21c0.38-7.39-1.16-13.09-4.59-17.12s-8.48-6.04-15.11-6.04c-4.22 0-7.98 1.08-11.26 3.23-3.28 2.16-5.88 5.21-7.8 9.16s-2.99 8.44-3.23 13.49c-0.35 7.74 1.19 13.66 4.64 17.77 3.45 4.1 8.63 6.15 15.53 6.15 1.86 0 3.83-0.22 5.91-0.65s3.77-0.93 5.08-1.51l1.23 5.51c-1.35 0.88-3.17 1.6-5.46 2.14s-4.58 0.81-6.88 0.81c-6.04 0-11.14-1.16-15.31-3.47s-7.27-5.73-9.31-10.27c-2.03-4.53-2.94-10.03-2.72-16.49 0.27-6.1 1.68-11.57 4.23-16.4s6.05-8.57 10.48-11.21 9.44-3.96 15.01-3.96 10.38 1.16 14.43 3.47 7.09 5.63 9.12 9.97 2.91 9.36 2.67 15.09z"/>
</svg>