<?xml version="1.0" encoding="UTF-8"?>
<svg enable-background="new 0 0 100 100" version="1.1" viewBox="0 0 100 100" xml:space="preserve" xmlns="http://www.w3.org/2000/svg">
<style type="text/css">
	.st0{fill:#4E4CFF;}
</style>
<path class="st0" d="m50 0c-27.6 0-50 22.4-50 50s22.4 50 50 50 50-22.4 50-50-22.4-50-50-50zm-12.8 73.2h-8.8v-32.3h8.8v32.3zm-4.4-36c-2.8 0-5.1-2.3-5.1-5.2s2.3-5.2 5.1-5.2 5.1 2.3 5.1 5.2-2.3 5.2-5.1 5.2zm39.6 36h-8.8v-16.5c0-9.9-11.7-9.1-11.7 0v16.4h-8.9v-32.2h8.8v5.2c4.1-7.6 20.5-8.1 20.5 7.3v19.8z"/>
</svg>
