<?xml version="1.0" encoding="utf-8"?>
<!-- Generator: Adobe Illustrator 24.0.1, SVG Export Plug-In . SVG Version: 6.00 Build 0)  -->
<svg version="1.1" id="Layer_1" xmlns="http://www.w3.org/2000/svg" xmlns:xlink="http://www.w3.org/1999/xlink" x="0px" y="0px"
	 viewBox="0 0 100 100" style="enable-background:new 0 0 100 100;" xml:space="preserve">
<style type="text/css">
	.st0{fill:#4E4CFF;}
</style>
<path class="st0" d="M0.2,100l7-25.7c-4.3-7.5-6.6-16-6.6-24.8C0.7,22.2,22.9,0,50.2,0c13.3,0,25.7,5.2,35,14.5
	c9.4,9.4,14.5,21.8,14.5,35c0,27.3-22.3,49.5-49.5,49.5c-8.3,0-16.5-2.1-23.7-6C26.5,93.1,0.2,100,0.2,100z M75.2,61.4
	c-0.3-0.5-1.1-0.8-2.4-1.5c-1.3-0.6-7.3-3.6-8.5-4c-1.1-0.4-2-0.6-2.8,0.6c-0.8,1.3-3.2,4-3.9,4.8c-0.7,0.8-1.5,0.9-2.7,0.3
	c-1.3-0.6-5.3-1.9-10-6.2c-3.7-3.3-6.2-7.3-6.9-8.6c-0.7-1.2-0.1-1.9,0.5-2.5c0.5-0.5,1.3-1.5,1.9-2.2c0.6-0.7,0.8-1.3,1.3-2
	c0.4-0.8,0.2-1.5-0.1-2.2c-0.4-0.5-2.8-6.6-3.9-9.1c-1-2.4-2-2.1-2.8-2.1l-2.4,0c-0.8,0-2.2,0.3-3.3,1.5c-1.1,1.3-4.3,4.3-4.3,10.3
	s4.5,12,5,12.8c0.6,0.8,8.8,13.3,21.2,18.7c3,1.3,5.3,2,7,2.6c3,1,5.7,0.8,7.8,0.5c2.4-0.3,7.3-3,8.4-5.9
	C75.5,64.4,75.5,61.9,75.2,61.4z"/>
</svg>
